<svg width="154" height="213" viewBox="0 0 154 213" fill="none" xmlns="http://www.w3.org/2000/svg">
<g id="Outline">
<path id="Vector" d="M137.517 158.237V148.205C138.111 148.269 138.711 148.306 139.316 148.306C145.547 148.306 150.844 144.843 153.14 139.269C153.436 138.551 153.508 137.743 153.345 136.973C153.183 136.204 152.794 135.517 152.242 135.022L135.273 119.809C133.804 116.446 131.674 113.494 129.043 111.173C126.411 108.852 123.345 107.221 120.071 106.401L107.081 103.181L79.6639 79.4021L70.7038 55.4194L78.0567 51.3194C81.5877 49.3673 84.5576 46.3509 86.6295 42.6123C88.7014 38.8737 89.7924 34.5625 89.7789 30.1676C89.779 25.4467 88.7855 20.7917 86.8784 16.577C84.9713 12.3623 82.2038 8.70553 78.7985 5.90087C75.3932 3.0962 71.4451 1.22193 67.2719 0.428793C63.0987 -0.36434 58.8168 -0.0541871 54.7706 1.3343C52.7796 0.648736 50.7235 0.225442 48.6442 0.0730649C48.0685 0.0242656 47.4694 0.000753209 46.8142 0.000753209C39.9189 -0.0248385 33.2791 2.90955 28.2715 8.19559C23.2638 13.4816 20.2723 20.7139 19.9171 28.3931H32.4926V21.295H27.6997C28.7314 18.5044 30.2564 15.974 32.1839 13.8549C32.5022 13.5 32.8328 13.1628 33.1681 12.8345L35.9974 19.3022L37.8672 18.2858C36.4186 22.0386 35.6727 26.0819 35.6752 30.1676V35.4911H10.2147C9.37059 35.4911 8.56109 35.8651 7.96425 36.5306C7.3674 37.1962 7.03209 38.0989 7.03209 39.0402V42.5892C7.03588 46.353 8.37832 49.9614 10.7649 52.6228C13.1515 55.2841 16.3873 56.7812 19.7624 56.7854V60.3344C19.7623 60.8855 19.8774 61.4289 20.0985 61.9217L29.6462 83.216C29.9106 83.8054 30.3168 84.3012 30.8196 84.6477C31.3223 84.9941 31.9016 85.1777 32.4926 85.1777H42.0403V102.923C39.807 102.925 37.6134 103.582 35.6796 104.828C33.7458 106.073 32.1398 107.864 31.0227 110.021H16.5798C15.7357 110.021 14.9262 110.395 14.3294 111.06C13.7325 111.726 13.3972 112.629 13.3972 113.57V124.217C13.3972 124.683 13.4795 125.145 13.6395 125.575C13.7994 126.006 14.0338 126.397 14.3293 126.727L16.5798 129.236V140.27L13.0356 138.689C11.2597 137.904 9.73701 136.541 8.66612 134.777C7.59523 133.013 7.0258 130.93 7.03209 128.8V106.472C7.03409 104.59 7.70535 102.786 8.89861 101.455C10.0919 100.125 11.7097 99.3761 13.3972 99.3739H35.6752V92.2758H13.3972C10.0221 92.28 6.78632 93.777 4.39975 96.4384C2.01319 99.0998 0.670746 102.708 0.666955 106.472V128.8C0.656527 132.35 1.60549 135.821 3.39013 138.761C5.17476 141.7 7.71225 143.972 10.6718 145.28L18.5804 148.807C19.0633 149.022 19.5862 149.102 20.1033 149.04C20.6204 148.978 21.116 148.775 21.5467 148.45C21.9773 148.125 22.33 147.687 22.5737 147.175C22.8175 146.663 22.9449 146.091 22.9449 145.511V127.766C22.945 127.3 22.8626 126.839 22.7027 126.408C22.5428 125.977 22.3084 125.586 22.0128 125.257L19.7624 122.747V117.119H29.3101V139.449C29.2997 142.998 30.2486 146.469 32.033 149.408C33.8173 152.347 36.3544 154.618 39.3133 155.925L47.2236 159.454C47.7065 159.669 48.2293 159.749 48.7464 159.687C49.2635 159.625 49.7591 159.423 50.1898 159.097C50.6204 158.772 50.9731 158.334 51.2168 157.822C51.4606 157.31 51.5881 156.738 51.5881 156.158V138.413C51.5881 137.947 51.5058 137.486 51.3458 137.055C51.1859 136.625 50.9515 136.233 50.656 135.904L48.4055 133.395V127.766H54.1258L58.8682 135.694C61.1164 139.462 64.574 142.127 68.5301 143.14L102.623 151.913C103.266 160.019 106.636 167.554 112.057 173.002V179.984L97.5626 205.845H87.3386C88.0253 204.308 89.1426 203.062 90.5212 202.296L91.1939 201.923C91.8128 201.58 92.3146 201.022 92.6237 200.333L102.171 179.038C102.47 178.372 102.573 177.618 102.466 176.882C102.359 176.147 102.047 175.468 101.575 174.941C96.533 169.322 93.4935 161.852 93.0215 153.92L86.6703 154.39C87.1918 163.152 90.2919 171.477 95.4896 178.074L87.4055 196.104C85.2341 197.376 83.4172 199.287 82.1522 201.631C80.8873 203.974 80.2228 206.659 80.2312 209.394C80.2312 210.335 80.5665 211.238 81.1633 211.904C81.7602 212.569 82.5697 212.943 83.4137 212.943H99.3266C99.8664 212.943 100.397 212.79 100.869 212.498C101.342 212.206 101.739 211.786 102.025 211.275L117.938 182.883C118.254 182.319 118.422 181.667 118.422 181.002V177.868C118.449 177.884 118.475 177.901 118.502 177.916L126.657 182.462L119.353 196.034C117.149 197.293 115.301 199.207 114.014 201.565C112.726 203.924 112.049 206.633 112.057 209.394C112.057 210.335 112.392 211.238 112.989 211.904C113.586 212.569 114.395 212.943 115.239 212.943H131.152C131.676 212.943 132.192 212.799 132.654 212.523C133.116 212.248 133.51 211.849 133.8 211.363L152.896 179.422C153.304 178.739 153.487 177.92 153.415 177.103C153.342 176.287 153.018 175.523 152.498 174.943L137.517 158.237ZM139.316 141.208C138.713 141.205 138.112 141.152 137.517 141.047V130.928L145.967 138.502C144.177 140.46 141.535 141.208 139.316 141.208ZM67.0633 46.2793C67.3541 45.0761 67.5012 43.8354 67.5009 42.5892V39.0402C67.5009 38.0989 67.1656 37.1962 66.5687 36.5306C65.9719 35.8651 65.1624 35.4911 64.3183 35.4911H61.1358V30.1676C61.1358 28.7557 61.6387 27.4016 62.534 26.4033C63.4293 25.4049 64.6435 24.844 65.9096 24.844C67.1757 24.844 68.39 25.4049 69.2852 26.4033C70.1805 27.4016 70.6835 28.7557 70.6835 30.1676C70.6777 35.4508 69.5748 40.6607 67.4611 45.389L67.0633 46.2793ZM38.5737 9.00156C40.6828 7.98155 42.9304 7.36327 45.2229 7.17247V7.19421C43.3839 8.93782 41.7605 10.9459 40.3954 13.1659L38.5737 9.00156ZM42.0403 30.1676C42.0403 29.57 42.0674 28.9795 42.1076 28.3931H48.4055V21.295H43.6316C44.8647 18.019 46.7566 15.103 49.1613 12.7724L51.8892 19.2543L57.652 16.2376L54.5888 8.96208C56.6679 7.96791 58.88 7.36368 61.1358 7.1738V14.1969H67.5009V7.72568C70.1788 8.43459 72.7021 9.73474 74.9219 11.5493L71.6156 15.2363L76.1165 20.2556L79.4228 16.5686C82.0192 20.5112 83.4176 25.276 83.4137 30.1676C83.4232 33.2433 82.6596 36.2604 81.2095 38.8768C79.7595 41.4932 77.681 43.6041 75.2099 44.9702L74.4206 45.4103C76.1511 40.5598 77.0427 35.3879 77.0486 30.1676C77.0486 26.8732 75.875 23.7137 73.7861 21.3842C71.6971 19.0547 68.8639 17.746 65.9096 17.746C62.9554 17.746 60.1221 19.0547 58.0332 21.3842C55.9442 23.7137 54.7706 26.8732 54.7706 30.1676V35.4911H42.0403V30.1676ZM13.3972 42.5892H19.7624V49.6873C18.0748 49.6851 16.457 48.9365 15.2637 47.6059C14.0705 46.2752 13.3992 44.4711 13.3972 42.5892ZM129.449 205.845H119.166C119.852 204.308 120.969 203.062 122.348 202.296L123.02 201.923C123.565 201.622 124.02 201.152 124.333 200.571L133.881 182.826C134.107 182.407 134.252 181.94 134.308 181.455C134.364 180.97 134.33 180.477 134.208 180.008C134.085 179.538 133.877 179.102 133.596 178.727C133.315 178.351 132.967 178.045 132.575 177.826L121.349 171.566C117.805 169.158 114.714 166.007 112.245 162.288C109.779 158.51 108.874 153.739 108.874 149.06V131.315H102.509V144.599L69.961 136.224C67.5866 135.616 65.5114 134.017 64.1616 131.755L61.7747 127.766H73.866C74.3601 127.766 74.8474 127.638 75.2893 127.391C75.7312 127.145 76.1156 126.787 76.4121 126.347L85.9598 112.15L80.8677 107.892L72.2747 120.668H45.2229C44.3788 120.668 43.5693 121.042 42.9725 121.708C42.3756 122.373 42.0403 123.276 42.0403 124.217V134.864C42.0403 135.33 42.1226 135.792 42.2826 136.222C42.4425 136.653 42.6769 137.044 42.9724 137.374L45.2229 139.883V150.917L41.6771 149.335C39.9018 148.551 38.3795 147.188 37.3089 145.424C36.2383 143.661 35.669 141.579 35.6752 139.449V117.119C35.6772 115.237 36.3485 113.433 37.5417 112.102C38.735 110.772 40.3528 110.023 42.0403 110.021H64.3183V102.923H48.4055V60.3344H42.0403V78.0796H34.4595L26.1275 59.4964V42.5892H61.1358C61.1338 44.4711 60.4625 46.2752 59.2692 47.6059C58.076 48.9365 56.4581 49.6851 54.7706 49.6873H48.4055V56.7854H54.7706C57.8043 56.7871 60.7378 55.575 63.0381 53.3694C63.056 53.4138 63.0779 53.4608 63.095 53.5083L74.1107 82.9919C74.3221 83.5573 74.661 84.0522 75.0945 84.4284L103.738 109.272C104.11 109.594 104.541 109.821 105.001 109.934L118.69 113.328C121.127 113.938 123.402 115.177 125.332 116.945C127.263 118.712 128.794 120.96 129.805 123.507C130.698 125.757 131.157 128.19 131.152 130.65V159.708C131.152 160.174 131.235 160.635 131.394 161.066C131.554 161.496 131.789 161.888 132.084 162.217L146.153 177.905L129.449 205.845Z" fill="white"/>
<path id="Vector_2" d="M38.8578 53.2361H32.4926V60.3342H38.8578V53.2361Z" fill="white"/>
</g>
</svg>
