<svg width="286" height="254" viewBox="0 0 286 254" fill="none" xmlns="http://www.w3.org/2000/svg">
<g id="Outline">
<path id="Vector" d="M221.66 187.024L230.408 166.559C232.961 160.625 233.687 154.046 232.503 147.57C235.487 150.682 237.512 154.508 238.334 158.592C239.157 162.676 238.743 166.845 237.142 170.603L233.784 178.458C230.83 185.427 230.926 193.357 234.051 200.53L241.138 197.95C238.812 192.61 238.74 186.705 240.939 181.517L244.297 173.661C247.228 166.778 247.163 158.944 244.117 151.839C241.071 144.734 235.286 138.925 228.004 135.66C223.885 128.748 217.538 123.238 209.964 120.001L181.876 107.995C180.549 94.119 175.534 80.6349 167.31 68.8318C159.086 57.0287 147.928 47.3015 134.904 40.5805L140.402 36.7358C140.937 36.3618 141.352 35.8547 141.607 35.2657C141.861 34.6767 141.945 34.0267 141.85 33.3811C141.755 32.7356 141.485 32.1175 141.067 31.5891C140.649 31.0607 140.097 30.6408 139.468 30.3717C139.468 30.3717 129.75 26.2178 121.654 22.749L121.619 22.7342C113.861 19.4132 105.333 18.4093 97.1922 19.859L96.8696 19.9159C91.9919 20.7729 87.439 22.7036 83.5644 25.5582C79.6898 28.4128 76.5976 32.1145 74.5278 36.3761L52.6351 41.7197C51.8805 41.9039 51.2139 42.3079 50.7254 42.8772C50.237 43.4465 49.95 44.1537 49.9032 44.9035L49.1803 56.4935C49.1323 57.2629 49.3398 58.0386 49.7732 58.7106C50.2067 59.3827 50.8441 59.917 51.5953 60.2378L51.1633 60.2981C50.1752 60.2276 49.2142 60.5222 48.4791 61.1207C47.7441 61.7193 47.2911 62.5762 47.2138 63.5142L46.5828 71.1772C46.5186 71.9565 46.7177 72.7468 47.151 73.4327C47.5843 74.1186 48.2292 74.6643 48.9917 74.9902L58.3588 78.9943L69.9655 122.639C72.9876 133.917 80.1463 143.951 90.1084 150.871L84.6697 154.427L53.0537 152.34C52.4796 152.302 51.9098 152.387 51.3861 152.588C50.8624 152.79 50.3979 153.103 50.0267 153.505L43.9439 160.092L28.6344 153.548L29.7294 150.986L41.2581 141.724L65.1942 136.652L63.1947 129.451L38.3798 134.709C37.8021 134.831 37.2684 135.082 36.821 135.442L23.9317 145.798C23.4841 146.157 23.1352 146.615 22.9127 147.136L20.0456 153.843C19.6655 154.732 19.6778 155.747 20.0799 156.662C20.482 157.578 21.2409 158.32 22.1898 158.726L43.6555 167.902C44.4064 168.223 45.2329 168.314 46.018 168.163C46.8031 168.012 47.507 167.626 48.0299 167.06L54.7197 159.815L85.8026 161.867C86.6492 161.923 87.4784 161.711 88.1621 161.265L94.9254 156.847L88.0765 172.87L80.1942 174.098C78.4349 174.37 76.7938 175.058 75.4171 176.1C74.0405 177.142 72.9711 178.506 72.3043 180.071L69.4094 186.843C69.0293 187.732 69.0416 188.747 69.4437 189.662C69.8458 190.578 70.6047 191.32 71.5536 191.726L96.5969 202.431C97.424 202.784 98.3403 202.859 99.1901 202.64C100.04 202.422 100.77 201.926 101.258 201.235C101.258 201.235 123.004 170.35 123.098 170.129L124.532 166.776L138.842 172.893C139.16 173.029 179.704 179.353 179.704 179.353L179.588 180.418C179.083 184.944 179.583 189.566 181.054 193.985C182.525 198.404 184.935 202.523 188.129 206.074L185.933 211.211L158.802 221.088L145.973 215.604L147.068 213.043C147.332 212.419 147.777 211.886 148.353 211.505C148.928 211.124 149.612 210.911 150.326 210.888L154.169 210.756C154.582 210.742 154.987 210.664 155.368 210.525L165.39 206.876C166.243 206.566 166.935 205.966 167.34 205.187C167.745 204.408 167.836 203.502 167.596 202.636L166.761 199.638C165.267 194.274 164.87 188.732 165.591 183.322L157.942 182.062C157.102 188.371 157.557 194.832 159.282 201.09L152.909 203.41L149.688 203.521C147.546 203.588 145.496 204.229 143.768 205.372C142.04 206.514 140.704 208.112 139.913 209.985L137.384 215.899C137.004 216.789 137.016 217.803 137.418 218.719C137.821 219.634 138.58 220.377 139.528 220.782L157.416 228.429C157.886 228.63 158.389 228.742 158.895 228.759C159.401 228.776 159.901 228.697 160.366 228.528L190.433 217.582C190.898 217.413 191.32 217.156 191.674 216.826C192.027 216.496 192.306 216.099 192.494 215.659L194.253 211.545C195.324 212.305 196.436 213.007 197.585 213.649L194.091 221.823L192.621 221.873C190.479 221.94 188.428 222.581 186.7 223.723C184.972 224.866 183.636 226.464 182.844 228.336L180.316 234.251C179.936 235.14 179.948 236.154 180.35 237.07C180.752 237.986 181.511 238.728 182.46 239.134L200.348 246.78C200.903 247.018 201.503 247.13 202.099 247.11C202.696 247.089 203.272 246.936 203.783 246.662L220.25 237.836C220.963 237.454 221.516 236.855 221.826 236.129L230.427 216.008C230.763 215.223 230.794 214.338 230.516 213.506L221.66 187.024ZM54.6101 67.9093L60.5643 68.3335C62.0027 68.4615 63.4183 68.0999 64.5601 67.3127C65.7018 66.5255 66.496 65.3637 66.8017 64.0331C67.1074 62.7025 66.905 61.2893 66.2303 60.0439C65.5556 58.7985 64.4521 57.8015 63.1157 57.2296L57.0409 54.6329L57.2822 50.7696L66.6287 54.7649L69.4957 48.0577L65.3842 46.3002L77.1952 43.4162L90.2509 48.997L85.0365 61.1956L61.3631 72.3458L54.4891 69.4075L54.6101 67.9093ZM77.4288 121.139L66.0884 78.4882L89.9274 67.2635C90.7202 66.8892 91.3375 66.2545 91.6721 65.4699L98.8396 48.702C99.2198 47.8125 99.2075 46.7984 98.8054 45.8827C98.4033 44.967 97.6444 44.2247 96.6955 43.8191L82.6086 37.7976C84.3127 35.0322 86.6131 32.6605 89.3655 30.8314C92.1179 29.0023 95.2629 27.7551 98.6033 27.1683L98.9263 27.1115C105.533 25.9336 112.455 26.747 118.752 29.4412L118.78 29.4534C122.692 31.1296 126.982 32.9651 130.373 34.4155L125.105 38.0991C124.57 38.4731 124.155 38.9802 123.9 39.5692C123.646 40.1583 123.562 40.8084 123.657 41.4539C123.752 42.0995 124.022 42.7176 124.44 43.246C124.858 43.7744 125.41 44.1943 126.039 44.4633C138.609 49.8364 149.633 58.2135 158.006 68.7541C166.379 79.2948 171.806 91.6284 173.742 104.518L143.903 91.7627C143.195 91.4602 142.419 91.3612 141.673 91.4782C140.928 91.5953 140.245 91.9231 139.712 92.4202C139.18 92.9173 138.821 93.5615 138.681 94.2711C138.541 94.9807 138.626 95.724 138.926 96.4069L139.501 97.7149C143.17 106.046 145.055 114.928 145.039 123.815L145.038 125.735L142.107 125.603C133.368 125.214 124.709 123.229 116.599 119.755L115.257 119.181C114.308 118.776 113.247 118.74 112.308 119.082C111.368 119.424 110.626 120.116 110.246 121.006L98.845 147.678C93.5909 144.86 88.9672 141.039 85.2768 136.466C81.5865 131.893 78.9127 126.67 77.4306 121.139L77.4288 121.139ZM215.149 231.953L201.426 239.308L188.905 233.956L189.999 231.395C190.263 230.77 190.708 230.238 191.284 229.857C191.86 229.476 192.543 229.262 193.257 229.24L197.101 229.108C197.814 229.083 198.497 228.869 199.072 228.488C199.648 228.108 200.094 227.576 200.36 226.954L206.094 213.539C206.475 212.65 206.462 211.636 206.06 210.72C205.658 209.804 204.899 209.062 203.95 208.656C198.544 206.345 193.99 202.446 190.978 197.55C187.965 192.653 186.658 187.025 187.254 181.517C188.084 175.875 190.38 170.585 193.936 166.125L187.834 161.352C183.929 166.01 181.989 169.639 181.024 172.144L141.231 165.981L127.399 160.069L134.567 143.301L127.411 140.242L116.085 166.739L96.5307 194.47L77.9982 186.548L79.4595 183.129C79.6554 182.67 79.9696 182.269 80.3742 181.962C80.7788 181.656 81.2611 181.454 81.7782 181.374L91.6795 179.831C92.3004 179.734 92.8796 179.491 93.3655 179.123C93.8514 178.755 94.2291 178.274 94.4651 177.722L115.982 127.385C124.351 130.682 133.194 132.571 142.105 132.966L148.889 133.274C149.395 133.297 149.896 133.224 150.364 133.06C150.832 132.897 151.257 132.645 151.615 132.319C151.973 131.993 152.257 131.6 152.451 131.162C152.645 130.724 152.745 130.25 152.746 129.766L152.749 124.165C152.762 116.685 151.564 109.195 149.197 101.959L207.097 126.708C213.443 129.419 218.687 134.144 221.905 140.05C222.303 140.774 222.67 141.517 222.996 142.259C224.506 145.673 225.306 149.308 225.35 152.954C225.394 156.601 224.681 160.185 223.253 163.5L213.985 185.181C213.649 185.966 213.618 186.851 213.896 187.683L222.752 214.165L215.149 231.953Z" fill="white"/>
<path id="Vector_2" d="M115.098 51.7299L111.202 57.9092L123.811 65.5305L127.708 59.3513L115.098 51.7299Z" fill="white"/>
<path id="Vector_3" d="M103.784 66.9979L98.3421 71.9702L108.356 81.9521L113.798 76.9797L103.784 66.9979Z" fill="white"/>
<path id="Vector_4" d="M102.281 86.8972L95.3499 89.8108L101.471 102.095L108.402 99.1816L102.281 86.8972Z" fill="white"/>
<path id="Vector_5" d="M84.6967 83.2951L77.3314 85.1379L81.1709 97.191L88.5362 95.3482L84.6967 83.2951Z" fill="white"/>
<path id="Vector_6" d="M95.7085 106.287L88.3889 108.268L92.1395 119.291L98.9639 117.444L99.3806 117.434L98.9663 117.444L99.4591 117.31L95.7085 106.287Z" fill="white"/>
<path id="Vector_7" d="M120.427 98.0396L114.585 102.583L123.793 113.212L129.635 108.669L120.427 98.0396Z" fill="white"/>
<path id="Vector_8" d="M122.544 78.9037L117.412 84.1689L128.499 94.1141L133.631 88.8489L122.544 78.9037Z" fill="white"/>
<path id="Vector_9" d="M142.596 67.5242L138.079 73.2893L150.956 82.76L155.473 76.9949L142.596 67.5242Z" fill="white"/>
<path id="Vector_10" d="M116.74 36.5219L106.007 31.9341L103.14 38.6412L113.873 43.2291L116.74 36.5219Z" fill="white"/>
<path id="Vector_11" d="M148.877 149.418L141.722 146.359L137.421 156.42L144.577 159.479L148.877 149.418Z" fill="white"/>
<path id="Vector_12" d="M163.188 155.535L156.032 152.477L153.165 159.184L160.321 162.242L163.188 155.535Z" fill="white"/>
</g>
</svg>
