<svg width="192" height="179" viewBox="0 0 192 179" fill="none" xmlns="http://www.w3.org/2000/svg">
<g id="Outline">
<path id="Vector" d="M173.876 68.4414C171.345 66.2479 168.618 64.3508 165.739 62.7803C161.458 57.2621 156.087 52.9268 150.049 50.1155C144.338 47.4608 137.808 45.3061 133.34 40.3233L109.925 14.2112C105.723 9.52606 100.667 5.9024 95.1001 3.58559C89.533 1.26877 83.5844 0.312886 77.6573 0.78264C71.7301 1.25239 65.9626 3.13682 60.7453 6.30835C55.5279 9.47987 50.9826 13.8644 47.4169 19.1652L21.67 57.4505H18.4874C18.0654 57.4505 17.6606 57.2635 17.3622 56.9307C17.0638 56.598 16.8961 56.1466 16.8961 55.676C16.8937 53.3236 16.0546 51.0684 14.5631 49.4051C13.0715 47.7417 11.0491 46.8061 8.93969 46.8034H4.16584C3.53637 46.8033 2.92103 47.0115 2.39764 47.4015C1.87425 47.7914 1.46631 48.3457 1.22542 48.9942C0.98453 49.6428 0.921505 50.3564 1.04431 51.0448C1.16712 51.7333 1.47025 52.3657 1.91537 52.862C2.63108 53.6557 3.19851 54.5998 3.58481 55.6397C3.97111 56.6796 4.16859 57.7947 4.16584 58.9202V64.5486C4.16963 68.3123 5.51207 71.9207 7.89864 74.5821C10.2852 77.2435 13.521 78.7405 16.8961 78.7447H20.0787C20.0787 86.7984 23.7263 95.073 25.9847 102.629L17.8294 111.724C17.3569 112.25 17.0451 112.929 16.938 113.665C16.8309 114.4 16.934 115.154 17.2327 115.821L23.5978 130.017C23.8619 130.607 24.268 131.103 24.7707 131.449C25.2734 131.796 25.8527 131.98 26.4438 131.98H32.809V142.627C29.031 142.575 25.3123 141.573 21.9297 139.695C13.6026 135.059 7.34841 123.618 7.34841 113.281C7.41279 107.769 9.01315 102.415 11.9277 97.9623L17.3258 89.9362L12.2336 85.6773L6.83363 93.707C3.06925 99.3736 1.0202 106.229 0.983272 113.281C0.983272 126.413 8.53749 140.174 19.0841 146.042C23.4336 148.457 28.2248 149.718 33.0835 149.726H35.9915C36.8356 149.726 37.6451 149.352 38.2419 148.686C38.8388 148.02 39.1741 147.118 39.1741 146.176V128.431C39.1741 127.49 38.8388 126.587 38.2419 125.922C37.6451 125.256 36.8356 124.882 35.9915 124.882H28.4106L23.9511 114.936L28.234 110.159L29.7895 115.358C30.0007 116.064 30.406 116.679 30.948 117.114C31.4899 117.55 32.141 117.784 32.809 117.784H45.5392C48.0705 117.781 50.4973 116.658 52.2872 114.662C54.0771 112.666 55.084 109.96 55.0869 107.137V105.281L61.4521 108.12V118.18C61.4521 135.127 77.8212 153.275 92.9229 153.275C97.9337 153.28 102.833 151.626 106.999 148.521L110.956 145.58C111.316 145.312 111.624 144.966 111.859 144.561C112.095 144.156 112.254 143.702 112.327 143.227C112.401 142.751 112.386 142.263 112.284 141.794C112.183 141.325 111.996 140.884 111.737 140.498L102.189 126.302C101.915 125.895 101.567 125.559 101.166 125.315C100.766 125.072 100.323 124.927 99.8685 124.891C99.4136 124.855 98.9572 124.928 98.53 125.106C98.1028 125.284 97.7148 125.562 97.3924 125.922L93.2777 130.511L84.0718 120.245L86.2148 110.686H126.363C131.741 121.569 140.274 130.094 150.564 134.864V140.995C144.643 146.655 138.331 151.806 132.643 157.769C130.391 160.083 128.392 162.686 126.687 165.523C126.318 166.14 124.009 171.02 123.4 171.02H109.493C110.241 166.685 112.354 162.792 115.451 160.043C115.502 159.997 115.552 159.95 115.6 159.901L133.606 141.709C133.974 141.337 134.259 140.874 134.438 140.357C134.617 139.84 134.685 139.283 134.636 138.732C134.587 138.18 134.424 137.649 134.158 137.181C133.892 136.712 133.532 136.32 133.106 136.035C126.663 131.737 121.932 124.861 119.877 116.808L113.758 118.76C115.856 126.988 120.267 134.247 126.343 139.469L111.397 154.571C108.714 156.974 106.551 160.019 105.067 163.481C103.584 166.942 102.817 170.732 102.825 174.569C102.825 175.51 103.161 176.413 103.758 177.078C104.354 177.744 105.164 178.118 106.008 178.118H125.103C125.627 178.118 126.143 177.974 126.605 177.698C127.067 177.422 127.461 177.024 127.751 176.538L133.873 166.297L155.818 145.322C156.166 144.989 156.446 144.576 156.638 144.11C156.83 143.645 156.929 143.139 156.929 142.627V137.264C161.025 138.471 165.244 139.081 169.48 139.078H169.659V144.707L155.995 159.944C152.518 163.823 150.565 169.084 150.564 174.569C150.564 175.51 150.899 176.413 151.496 177.078C152.093 177.744 152.902 178.118 153.747 178.118H172.842C173.366 178.118 173.882 177.974 174.344 177.698C174.805 177.422 175.199 177.024 175.49 176.538L181.68 166.184L191.005 155.785C191.301 155.456 191.535 155.064 191.695 154.633C191.855 154.203 191.938 153.741 191.937 153.275V109.626C191.96 101.676 190.343 93.8275 187.211 86.6862C184.079 79.5449 179.517 73.3024 173.876 68.4414ZM185.572 109.626V118.627L183.082 115.296C182.55 114.581 182.055 113.859 181.6 113.141C181.436 112.167 181.312 111.224 181.232 110.331L180.584 103.094C180.093 97.7204 178.548 92.5327 176.058 87.8999C175.91 87.6266 175.764 87.3649 175.62 87.1094C175.214 83.8154 174.496 80.5789 173.477 77.4542C177.322 81.6403 180.374 86.645 182.452 92.1714C184.53 97.6979 185.591 103.633 185.572 109.626ZM16.8961 71.6467C15.2086 71.6444 13.5908 70.8959 12.3975 69.5652C11.2042 68.2345 10.533 66.4304 10.531 64.5486V58.9202C10.5327 57.3421 10.3212 55.7727 9.90361 54.2648C10.0985 54.4303 10.2566 54.6437 10.3654 54.8885C10.4742 55.1333 10.5309 55.4028 10.531 55.676C10.5334 58.0283 11.3724 60.2835 12.864 61.9469C14.3556 63.6102 16.378 64.5459 18.4874 64.5486H20.0787V71.6467H16.8961ZM185.572 151.805C182.256 155.503 178.511 159.048 175.76 163.292C174.136 165.795 172.676 168.449 171.139 171.02H157.352C157.488 170.458 157.657 169.906 157.857 169.369C158.467 167.72 159.364 166.223 160.496 164.963L175.092 148.686C175.388 148.357 175.622 147.965 175.782 147.535C175.942 147.104 176.025 146.643 176.025 146.176V135.529C176.025 134.588 175.689 133.685 175.092 133.02C174.496 132.354 173.686 131.98 172.842 131.98H169.48C159.033 131.915 148.955 127.661 141.087 119.996C136.991 115.965 133.627 111.093 131.178 105.646C127.883 96.7188 127.09 86.1116 127.083 86.0052L120.737 86.5659C121.228 92.3388 122.24 98.0418 123.758 103.588H91.628C94.7709 98.8595 96.4652 93.1283 96.4603 87.2425V85.8428H90.0952V87.2425C90.0984 90.5952 89.3576 93.8967 87.939 96.8527C86.5203 99.8087 84.4678 102.327 81.9645 104.184C81.3059 104.674 80.8345 105.42 80.6425 106.276L77.46 120.473C77.3263 121.067 77.3329 121.69 77.4793 122.281C77.6257 122.872 77.9069 123.41 78.2954 123.844L91.0257 138.04C91.3212 138.37 91.6721 138.631 92.0582 138.81C92.4443 138.988 92.8582 139.08 93.2762 139.08C93.6941 139.08 94.108 138.988 94.4941 138.81C94.8802 138.631 95.2311 138.37 95.5266 138.04L99.2972 133.836L104.624 141.757L103.467 142.617C100.346 144.942 96.676 146.181 92.9229 146.176C81.2277 146.176 67.8172 131.14 67.8172 118.18V92.9409H61.4521V100.476L55.0869 97.6363V94.4106L60.52 88.3524C60.8155 88.0229 61.0499 87.6316 61.2098 87.201C61.3698 86.7704 61.4521 86.3089 61.4521 85.8428V78.7447H64.6346C68.0097 78.7405 71.2455 77.2435 73.6321 74.5821C76.0187 71.9207 77.3611 68.3123 77.3649 64.5486V58.9202C77.3622 57.7947 77.5596 56.6796 77.9459 55.6397C78.3322 54.5998 78.8997 53.6557 79.6154 52.862C80.0605 52.3657 80.3636 51.7333 80.4864 51.0448C80.6092 50.3564 80.5462 49.6428 80.3053 48.9942C80.0644 48.3457 79.6565 47.7914 79.1331 47.4015C78.6097 47.0115 77.9944 46.8033 77.3649 46.8034H72.591C70.4816 46.8061 68.4593 47.7417 66.9677 49.4051C65.4761 51.0684 64.6371 53.3236 64.6346 55.676C64.6346 56.1466 64.467 56.598 64.1686 56.9307C63.8701 57.2635 63.4654 57.4505 63.0433 57.4505H55.0869C52.5547 57.4505 50.1262 58.5722 48.3357 60.569C46.5451 62.5657 45.5392 65.2738 45.5392 68.0976C45.5392 70.9214 46.5451 73.6295 48.3357 75.6263C50.1262 77.623 52.5547 78.7447 55.0869 78.7447V84.3731L49.6539 90.4313C49.3584 90.7608 49.1239 91.1521 48.964 91.5827C48.8041 92.0133 48.7218 92.4748 48.7218 92.9409V107.137C48.7208 108.078 48.3852 108.98 47.7886 109.645C47.192 110.311 46.383 110.685 45.5392 110.686H35.1032L26.4438 81.717V62.1823L52.5094 23.4241C55.7891 18.5721 60.032 14.6331 64.9055 11.9162C69.779 9.19916 75.1506 7.77795 80.5992 7.76395C89.9095 7.76739 98.8379 11.8917 105.423 19.2309L128.839 45.3425C133.926 51.0156 141.101 53.6459 147.601 56.6675C153.452 59.3866 158.551 63.7871 162.38 69.4204C166.208 75.0537 168.628 81.7183 169.394 88.7348C169.397 88.7717 169.401 88.8085 169.405 88.8453C170.151 95.2841 169.834 101.302 171.857 107.533C174.58 115.922 180.465 122.882 185.571 129.714V151.803L185.572 151.805ZM55.0869 71.6467C54.2429 71.6467 53.4334 71.2727 52.8365 70.6072C52.2397 69.9416 51.9044 69.0389 51.9044 68.0976C51.9044 67.1563 52.2397 66.2536 52.8365 65.5881C53.4334 64.9225 54.2429 64.5486 55.0869 64.5486H63.0433C65.1528 64.5459 67.1751 63.6102 68.6667 61.9469C70.1583 60.2835 70.9973 58.0283 70.9998 55.676C70.9999 55.4028 71.0565 55.1333 71.1654 54.8885C71.2742 54.6437 71.4322 54.4303 71.6271 54.2648C71.2096 55.7727 70.9981 57.3421 70.9998 58.9202V64.5486C70.9978 66.4304 70.3265 68.2345 69.1333 69.5652C67.94 70.8959 66.3222 71.6444 64.6346 71.6467H55.0869Z" fill="white"/>
<path id="Vector_2" d="M137.834 85.8426H134.651C134.814 91.3214 136.013 96.7001 138.17 101.626L143.863 98.4514C142.152 94.5058 141.184 90.2117 141.016 85.8333L137.834 85.8426Z" fill="white"/>
<path id="Vector_3" d="M79.4603 73.2135C79.4845 73.2699 81.8715 78.8978 79.469 84.2555L85.1622 87.4301C89.012 78.8436 85.3214 70.4142 85.1622 70.0593L79.4603 73.2135Z" fill="white"/>
<path id="Vector_4" d="M112.373 85.8428H106.008V92.9409H112.373V85.8428Z" fill="white"/>
<path id="Vector_5" d="M114.139 47.3997L110.608 53.3053C110.687 53.366 118.738 59.8776 118.738 78.7448H125.103C125.103 55.8144 114.586 47.7324 114.139 47.3997Z" fill="white"/>
<path id="Vector_6" d="M98.3699 47.5132L94.5508 53.1916C94.6654 53.2875 106.008 62.9568 106.008 78.7447H112.373C112.373 59.4468 98.9415 47.9914 98.3699 47.5132Z" fill="white"/>
</g>
</svg>
