<svg width="160" height="213" viewBox="0 0 160 213" fill="none" xmlns="http://www.w3.org/2000/svg">
<g id="Outline">
<path id="Vector" d="M159.089 137.893L156.483 120.148C156.465 120.027 156.442 119.907 156.413 119.789L155.446 115.842L155.865 115.713C156.676 115.46 157.364 114.859 157.778 114.042C158.192 113.224 158.299 112.257 158.075 111.352C157.852 110.447 157.315 109.677 156.584 109.212C155.852 108.747 154.985 108.624 154.173 108.871L153.772 108.994L149.581 91.8543V63.9371C149.576 59.8482 148.307 55.8861 145.989 52.7187C143.67 49.5513 140.442 47.3723 136.851 46.5491V21.0248C136.845 15.465 134.862 10.1347 131.337 6.20338C127.811 2.27201 123.031 0.0606436 118.046 0.0544203C115.243 0.0544203 112.308 -0.236601 109.564 0.52733C107.028 1.23134 104.71 2.68464 102.852 4.73427C101.519 6.21433 100.463 7.97412 99.7431 9.91204C99.0236 11.85 98.6554 13.9276 98.6598 16.0251V16.9616L95.8134 23.3104C95.5147 23.9767 95.4116 24.731 95.5187 25.4663C95.6258 26.2016 95.9377 26.8807 96.4101 27.4073L98.6598 29.9165V35.5448C98.6598 36.4861 98.9951 37.3888 99.592 38.0544C100.189 38.7199 100.998 39.0939 101.842 39.0939H111.39V35.5448C111.39 34.6035 111.055 33.7008 110.458 33.0353C109.861 32.3697 109.052 31.9958 108.208 31.9958H105.025V28.4467C105.025 27.9807 104.943 27.5191 104.783 27.0885C104.623 26.6579 104.388 26.2667 104.093 25.9371L102.532 24.1968L104.689 19.3869C105.158 18.3413 105.025 17.1532 105.025 16.0251C105.022 14.8606 105.227 13.707 105.626 12.6309C106.025 11.5548 106.611 10.5775 107.351 9.75528C107.638 9.44118 107.945 9.15115 108.271 8.88754L117.755 19.2875V46.1919H100.124C97.1826 46.1989 94.3338 47.3383 92.0591 49.4175C89.7844 51.4968 88.2234 54.3882 87.6402 57.603L85.9295 67.1313L84.2209 57.6025C83.6375 54.3875 82.0762 51.4958 79.8011 49.4167C77.526 47.3375 74.6768 46.1983 71.7353 46.1919H63.6516V39.0939H70.0167C70.8608 39.0939 71.6703 38.7199 72.2671 38.0544C72.864 37.3888 73.1993 36.4861 73.1993 35.5448V29.9169L75.4497 27.4073C75.9222 26.8807 76.2341 26.2016 76.3412 25.4663C76.4483 24.731 76.3452 23.9767 76.0465 23.3104L73.1993 16.9616V16.0251C73.2001 13.9275 72.8302 11.8504 72.1108 9.91228C71.3914 7.97421 70.3365 6.21324 69.0064 4.73004C67.6764 3.24684 66.0973 2.07049 64.3593 1.26822C62.6214 0.465944 60.7587 0.0534875 58.8777 0.0544203H53.8134C49.5934 0.0429662 45.5067 1.70249 42.2814 4.73736C39.0561 7.77223 36.9017 11.9854 36.2019 16.6262L28.7125 56.1044C28.6144 56.6213 28.6211 57.1562 28.732 57.6699C28.843 58.1836 29.0553 58.6632 29.3537 59.0737C29.652 59.4842 30.0288 59.8152 30.4565 60.0426C30.8842 60.27 31.352 60.388 31.8259 60.3881C32.8903 60.387 33.9534 60.3076 35.0084 60.1503V91.8925L32.1242 104.753C30.6677 108.343 29.6533 112.135 29.1088 116.028L23.6558 115.014L28.549 93.1901C28.612 92.9086 28.6436 92.6195 28.6433 92.3294V63.9371H22.2782V91.8925L17.3571 113.845L16.435 113.674C15.6023 113.519 14.7487 113.74 14.062 114.288C13.3753 114.835 12.9117 115.664 12.7732 116.593C12.6348 117.521 12.8327 118.473 13.3236 119.239C13.8145 120.005 14.558 120.522 15.3907 120.676L16.0793 120.804C15.9699 121.934 15.913 138.467 15.913 138.467C15.913 139.408 16.2483 140.311 16.8452 140.977C17.442 141.642 18.2515 142.016 19.0956 142.016H28.6433V151.554L0.565892 196.78C0.0973224 197.535 -0.0907658 198.463 0.0411253 199.369C0.173017 200.275 0.614626 201.089 1.27322 201.64L12.9556 211.411C14.1334 212.396 15.5559 212.95 17.0275 212.997C18.4991 213.044 19.9476 212.581 21.1737 211.672C22.3999 210.763 23.3435 209.453 23.8747 207.922C24.4059 206.391 24.4987 204.714 24.1404 203.122L22.5706 196.12L28.6433 187.843V209.448C28.6433 210.389 28.9786 211.292 29.5755 211.957C30.1723 212.623 30.9818 212.997 31.8259 212.997H72.2357C73.8088 212.997 75.3401 212.433 76.6035 211.388C77.8668 210.343 78.7951 208.872 79.2511 207.193C79.707 205.514 79.6665 203.716 79.1355 202.065C78.6044 200.414 77.6111 198.997 76.3023 198.024L70.0167 193.352V107.388L85.9295 104.655L105.025 107.933V112.94L92.5222 147.796C92.3414 148.301 92.2667 148.845 92.3038 149.386L95.3436 193.452L89.1949 198.024C87.8852 198.996 86.8909 200.413 86.3591 202.064C85.8273 203.715 85.7861 205.513 86.2418 207.192C86.6974 208.872 87.6256 210.343 88.8891 211.388C90.1525 212.433 91.6842 212.997 93.2574 212.997H149.581C150.123 212.997 150.657 212.842 151.131 212.547C151.605 212.253 152.003 211.828 152.288 211.313C152.573 210.799 152.736 210.211 152.76 209.607C152.785 209.003 152.67 208.402 152.427 207.86L146.398 194.414V142.016H155.946C156.408 142.016 156.863 141.904 157.282 141.688C157.701 141.472 158.073 141.157 158.372 140.765C158.67 140.373 158.889 139.913 159.013 139.417C159.136 138.921 159.161 138.401 159.087 137.893H159.089ZM119.307 53.29H133.668C136.2 53.29 138.629 54.4118 140.419 56.4085C142.21 58.4052 143.216 61.1133 143.216 63.9371V92.3294C143.216 92.645 143.254 92.9592 143.328 93.2637L147.635 110.879L144.672 111.789C143.244 106.156 140.729 99.4275 136.851 94.4367L136.79 67.7692C136.788 67.1159 136.639 66.4735 136.356 65.9016C136.072 65.3297 135.664 64.8466 135.169 64.497L119.307 53.29ZM123.171 15.2709L115.766 7.1525H118.045C121.343 7.15649 124.505 8.61929 126.837 11.22C129.17 13.8206 130.482 17.3468 130.486 21.0248V46.1919H124.12V17.7996C124.12 17.3288 124.036 16.8628 123.873 16.4287C123.709 15.9946 123.47 15.601 123.169 15.2709H123.171ZM93.882 58.996C94.1735 57.3885 94.9539 55.9426 96.0913 54.9029C97.2287 53.8632 98.6531 53.2934 100.124 53.29H101.842L98.3125 58.539C96.7959 60.7938 95.8476 63.4598 95.5657 66.2607C95.2838 69.0617 95.6786 71.8958 96.7093 74.4693L94.9044 84.5282L89.6181 82.7599L93.882 58.996ZM105.025 87.9144L101.028 86.5769L101.972 81.3123L105.025 83.5815V87.9144ZM67.2769 19.3523C67.3769 19.7469 67.508 20.1308 67.6688 20.4995C68.2094 21.7386 68.7743 22.9652 69.3269 24.1976L67.7662 25.938C67.1696 26.6034 66.8343 27.5058 66.8341 28.4467V31.9958H60.469C59.6249 31.9958 58.8154 32.3697 58.2186 33.0353C57.6217 33.7008 57.2864 34.6035 57.2864 35.5448V46.1919H53.0695C54.593 43.0194 55.5285 39.5374 55.8205 35.9534L57.1925 19.1239L63.9038 9.14573C64.1109 9.33471 64.3106 9.53553 64.5029 9.74818C65.6023 10.9731 66.3563 12.5298 66.6722 14.2266C67.0056 16.0366 66.8493 17.6719 67.2769 19.3523ZM42.4425 18.025C42.4517 17.9753 42.4604 17.9247 42.468 17.8746C42.9086 14.8757 44.2922 12.1498 46.3712 10.1851C48.4501 8.22035 51.0884 7.1453 53.8134 7.1525H57.2864L51.5578 15.6702C51.2037 16.1968 50.9878 16.8229 50.9344 17.4784L49.4804 35.3124C49.1599 39.4597 47.6671 43.3865 45.2171 46.5272C42.7671 49.6678 39.4863 51.8601 35.8474 52.7883L42.4425 18.025ZM22.2782 134.918C22.2782 134.918 22.318 122.718 22.378 121.972L28.6433 123.137V134.918H22.2782ZM16.6327 193.004C16.3186 193.432 16.0986 193.936 15.9902 194.476C15.8817 195.015 15.8879 195.576 16.0081 196.112L17.9634 204.834C17.9799 204.907 17.9887 204.981 17.9897 205.056C17.9886 205.213 17.9485 205.366 17.8738 205.5C17.7992 205.633 17.6929 205.74 17.5668 205.81C17.4407 205.88 17.2997 205.909 17.1594 205.895C17.0192 205.881 16.8852 205.824 16.7723 205.73L7.54288 198.011L28.6433 164.024V176.635L16.6327 193.004ZM35.1155 122.733C35.3645 116.409 36.2214 110.63 39.367 104.535C40.5935 102.044 42.1209 99.7521 43.9065 97.7244C46.1291 95.3195 48.1572 93.7495 47.3254 90.22C46.6817 87.4877 45.933 84.7802 45.2356 82.0638L41.3736 66.9889V58.1886C43.8315 57.0053 46.0955 55.3736 48.0725 53.3605C48.0952 53.3375 48.1159 53.3131 48.1385 53.29H62.0623L68.0988 62.2655C68.7189 63.1877 69.2013 64.2155 69.5274 65.3093C71.2778 71.1869 68.0284 75.3353 64.5856 79.1727C64.2898 79.5021 64.055 79.8933 63.8947 80.3239C63.7344 80.7545 63.6518 81.2161 63.6516 81.6823V205.899H35.0084V161.536C35.0084 151.027 34.9571 140.52 35.0029 130.011C35.014 127.48 35.0232 125.069 35.1155 122.733V122.733ZM70.185 82.9653L70.8322 86.576L70.0167 86.8493V83.1525L70.185 82.9653ZM72.7708 203.93C72.9429 204.058 73.0735 204.245 73.1432 204.462C73.213 204.679 73.2183 204.915 73.1583 205.136C73.0983 205.357 72.9762 205.55 72.8101 205.687C72.6439 205.825 72.4426 205.899 72.2357 205.899H70.0167V201.883L72.7708 203.93ZM70.0167 94.2597L72.1112 93.5583C72.6059 95.7108 73.5484 97.7031 74.8622 99.3738L70.0167 100.206V94.2597ZM83.4631 97.051C82.1744 96.8271 80.9782 96.1681 80.0357 95.1628C79.0932 94.1574 78.4497 92.8541 78.1919 91.4284L75.2775 75.1734C76.0026 73.1051 76.3771 70.9047 76.3818 68.684C76.3804 64.8351 75.261 61.0903 73.1913 58.0102L70.0167 53.29H71.7353C73.2061 53.2929 74.6309 53.8622 75.7687 54.9017C76.9064 55.9412 77.6872 57.387 77.9791 58.9946L82.8086 85.9274C82.9219 86.5589 83.1871 87.1441 83.5758 87.6204C83.9646 88.0966 84.4622 88.4459 85.0153 88.6309L105.025 95.3248V100.752L83.4631 97.051ZM92.5803 205.592C92.4783 205.48 92.4 205.344 92.351 205.194C92.3021 205.044 92.2837 204.883 92.2973 204.724C92.311 204.565 92.3561 204.412 92.4297 204.274C92.5032 204.137 92.6032 204.02 92.7223 203.932L100.424 198.204C100.894 197.855 101.273 197.372 101.52 196.805C101.767 196.238 101.875 195.608 101.832 194.979L98.7056 149.666L105.025 132.053V205.899H93.2574C93.1323 205.9 93.0082 205.873 92.8923 205.82C92.7764 205.768 92.6709 205.69 92.5819 205.592H92.5803ZM111.39 205.899V81.6823C111.39 81.0981 111.261 80.5229 111.014 80.0078C110.766 79.4927 110.409 79.0536 109.973 78.7295L105.321 75.2692C104.437 74.6122 103.682 73.761 103.104 72.7678C102.525 71.7746 102.134 70.6601 101.955 69.4926C101.775 68.3251 101.811 67.1291 102.061 65.9777C102.31 64.8263 102.767 63.7437 103.405 62.7961L109 54.4772L129.857 69.0136L124.284 87.658C124.078 88.3466 124.066 89.0891 124.25 89.7853C124.434 90.4816 124.806 91.0981 125.314 91.5518C129.889 95.6663 133.584 100.866 136.13 106.774C138.676 112.681 140.01 119.147 140.033 125.701V195.252C140.033 195.803 140.148 196.346 140.369 196.839L144.432 205.899H111.39ZM146.398 134.918V125.701C146.398 123.377 146.257 121.054 145.975 118.751L149.31 117.727L150.227 121.477L152.2 134.919L146.398 134.918Z" fill="white"/>
<path id="Vector_2" d="M120.938 99.4275H117.755C117.755 100.051 117.906 114.951 131.02 136.887L136.316 132.949C124.386 112.993 124.122 99.5437 124.12 99.4106L120.938 99.4275Z" fill="white"/>
<path id="Vector_3" d="M117.744 150.179C120.774 160.698 125.274 170.617 131.078 179.569L136.258 175.444C130.843 167.1 126.644 157.854 123.815 148.05L117.744 150.179Z" fill="white"/>
<path id="Vector_4" d="M122.176 141.248C120.968 135.17 120.938 131.4 120.938 131.36L114.573 131.369C114.573 131.55 114.589 135.874 115.962 142.784L122.176 141.248Z" fill="white"/>
<path id="Vector_5" d="M55.5037 107.739L49.5213 105.313C45.5152 117.599 40.819 126.968 35.9405 132.408L40.4414 137.428C46.0523 131.171 51.1201 121.182 55.5037 107.739Z" fill="white"/>
<path id="Vector_6" d="M51.6214 98.3694L57.6973 100.486C59.468 94.1625 60.3564 89.7355 60.3934 89.55L54.1798 88.0098C54.171 88.0524 53.3082 92.3529 51.6214 98.3694Z" fill="white"/>
<path id="Vector_7" d="M39.1203 192.745L41.3736 195.251L43.624 197.761C44.0326 197.305 53.7088 186.389 60.2414 168.177L54.3314 165.541C48.3092 182.331 39.2114 192.643 39.1203 192.745Z" fill="white"/>
<path id="Vector_8" d="M120.938 173.938L117.755 173.958H114.573C114.573 174.61 114.732 190.061 128.576 201.64L132.395 195.962C121.19 186.59 120.943 174.45 120.938 173.938Z" fill="white"/>
<path id="Vector_9" d="M49.902 142.186C46.4227 152.7 42.6955 160.366 39.123 164.35L43.624 169.369C53.6793 158.156 60.1053 129.879 60.3723 128.68L54.1973 126.958C54.1834 127.028 52.6024 134.025 49.902 142.186Z" fill="white"/>
</g>
</svg>
