<svg width="234" height="234" viewBox="0 0 234 234" fill="none" xmlns="http://www.w3.org/2000/svg">
<g id="Outline">
<path id="Vector" d="M167.795 40.5314C164.517 35.5019 158.455 33.9378 152.35 36.5465L154.561 41.7191C159.854 39.4562 162.421 42.5881 163.082 43.6022L173.339 59.3436C170.574 60.3391 167.325 60.4177 165.739 57.9841L162.22 52.5838L157.507 55.6546L161.026 61.0546C162.187 62.8573 163.91 64.2272 165.927 64.9524L163.583 74.9166C163.44 75.4028 163.34 75.9009 163.286 76.4049C163.075 76.5178 162.868 76.6373 162.667 76.7683L152.208 83.5837C151.387 84.1186 150.625 84.7369 149.932 85.4287L155.468 59.1852C155.472 59.1653 155.474 59.145 155.477 59.1251C155.479 59.114 155.483 59.1038 155.485 59.0925C156.684 52.2983 155.497 47.0545 151.958 43.5057C149.772 41.3142 146.999 40.1371 144.319 39.53L140.117 34.1302L135.661 37.5632L136.777 39.012C135.767 39.0827 135.062 39.1857 134.806 39.227L132.031 39.5452L125.616 35.1019L122.412 39.7269L123.55 40.5157L119.311 41.0006L113.628 37.0401L110.007 41.3573L110.832 41.9699L110.471 42.011L94.7089 37.0915C94.6732 37.0804 94.6373 37.0697 94.6012 37.0601C90.9674 36.0832 86.72 35.4435 82.8481 38.1485C77.5793 41.8132 75.8822 44.8556 74.7297 48.8723C74.5697 49.4299 74.5861 50.0233 74.7766 50.5712C74.9671 51.1192 75.3223 51.5948 75.7936 51.9329C76.2649 52.2711 76.8293 52.4552 77.4093 52.4602C77.9894 52.4651 78.5568 52.2905 79.0337 51.9604L83.052 49.1798L96.7881 53.9192L79.1329 58.8873C78.4593 59.0769 77.8805 59.5108 77.5097 60.1043C77.1389 60.6978 77.0027 61.4083 77.1276 62.0969C77.3793 63.4832 77.9075 64.8048 78.6808 65.9827C79.4541 67.1606 80.4565 68.1707 81.6285 68.953C82.8005 69.7352 84.1179 70.2735 85.5023 70.5358C86.8867 70.7981 88.3098 70.779 89.6866 70.4797L89.7424 70.4668L133.932 59.9129L132.931 64.3031L131.615 62.283L126.902 65.3539L131.193 71.9397L130.324 75.7582L127.616 71.6021L122.903 74.6729L128.587 83.3952L126.455 92.7649C125.938 92.9034 125.424 93.0523 124.912 93.2114L122.087 88.8753C122.647 87.7712 122.828 86.5129 122.6 85.2958C122.373 84.0786 121.75 82.9705 120.829 82.1434C119.907 81.3162 118.738 80.8163 117.504 80.721C116.269 80.6257 115.038 80.9405 114 81.6165C112.963 82.2925 112.178 83.2919 111.766 84.4598C111.354 85.6277 111.34 86.8987 111.724 88.0757C112.109 89.2528 112.871 90.2701 113.892 90.9699C114.914 91.6697 116.138 92.0129 117.374 91.9462L119.549 95.2837C117.844 96.0811 116.195 96.9931 114.614 98.0135L111.541 93.2983L106.829 96.3691L109.899 101.082L105.187 104.153L102.116 99.4399L97.403 102.511L100.475 107.226C98.9032 108.261 97.4029 109.4 95.9848 110.638L93.8101 107.3C94.3706 106.196 94.551 104.938 94.3235 103.721C94.096 102.504 93.4732 101.395 92.5517 100.568C91.6302 99.7412 90.4616 99.2412 89.227 99.1459C87.9924 99.0507 86.7609 99.3655 85.7234 100.041C84.686 100.717 83.9006 101.717 83.489 102.885C83.0775 104.053 83.0628 105.324 83.4472 106.501C83.8317 107.678 84.5938 108.695 85.6153 109.395C86.6369 110.095 87.8608 110.438 89.0973 110.371L91.9226 114.707C91.5199 115.17 91.1252 115.639 90.7439 116.118L86.171 115.153L80.665 106.703L75.9522 109.774L78.3866 113.51L74.4948 112.689L70.525 106.597L65.8122 109.668L66.7111 111.047L60.6365 109.767L71.8779 64.296C72.2215 62.9284 72.2837 61.5052 72.0609 60.1128C71.838 58.7204 71.3347 57.3877 70.5814 56.1956C69.7951 54.9783 68.7762 53.9282 67.5833 53.1053C66.3904 52.2824 65.0468 51.7031 63.6296 51.4004C63.2343 51.3172 62.7603 51.1931 61.7681 51.8819C61.7587 51.888 61.7485 51.8917 61.7391 51.8979C55.096 56.229 50.2199 62.7921 47.9907 70.4027L43.5739 85.842L42.6744 84.4615L37.9616 87.5323L41.9319 93.6257L41.1109 97.5175L40.2114 96.1369L35.4986 99.2078L39.469 105.301L38.8882 108.053C37.8692 112.911 38.8188 117.975 41.5286 122.134C44.2384 126.292 48.4873 129.207 53.343 130.237C53.3478 130.238 53.3526 130.238 53.3573 130.239L74.2335 134.644C73.4878 134.964 72.7708 135.347 72.0903 135.789C72.0903 135.789 61.2368 142.876 61.0486 143.023C60.5655 142.869 60.0697 142.759 59.5669 142.694L49.504 140.813C49.656 138.674 49.0987 136.545 47.9184 134.754L39.0685 121.172L38.4294 115.584C38.3759 115.116 38.2059 114.669 37.935 114.284C37.664 113.899 37.3008 113.589 36.8785 113.38C36.4563 113.172 35.9885 113.073 35.5182 113.093C35.0478 113.113 34.5899 113.25 34.1864 113.492C32.5995 114.446 29.8159 116.159 29.0029 116.918C24.1505 121.449 23.1327 127.626 26.41 132.656L38.3862 151.036C38.7934 151.661 39.4322 152.099 40.1621 152.253C40.8919 152.407 41.6531 152.264 42.278 151.857C44.5029 150.41 46.3714 148.478 47.7436 146.207L57.9492 148.114C57.5651 150.127 57.932 152.21 58.9807 153.971C58.8645 153.976 58.7482 153.973 58.6324 153.963L47.0365 151.796L46.003 157.325C46.003 157.325 57.8443 159.536 57.91 159.543C59.8151 159.765 61.7376 159.314 63.3452 158.268C63.5647 158.125 63.7778 157.971 63.9834 157.807C65.1363 158.131 66.3454 158.204 67.5289 158.021C68.7124 157.837 69.8426 157.401 70.8428 156.742L74.5353 154.336C73.3498 156.131 72.1726 157.93 71.0035 159.735C69.9508 161.366 68.8765 162.917 68.5939 164.886C67.6334 165.388 66.7817 166.075 66.088 166.908C65.3942 167.74 64.8722 168.702 64.5519 169.737C64.532 169.8 64.5148 169.864 64.4998 169.928L61.7897 181.435C61.3617 182.937 61.3448 184.526 61.7407 186.036C62.1366 187.546 62.9307 188.923 64.0402 190.021C64.1084 190.381 64.2467 190.725 64.4472 191.032L76.4234 209.412C79.7005 214.441 85.7625 216.006 91.8674 213.397C92.6266 213.019 93.3586 212.589 94.0581 212.11C95.115 211.421 96.2772 210.615 97.0949 210.039C97.4797 209.767 97.7902 209.404 97.9981 208.982C98.2059 208.559 98.3045 208.092 98.2846 207.621C98.2648 207.151 98.1273 206.693 97.8846 206.29C97.642 205.886 97.302 205.55 96.8957 205.313L92.0423 202.472L83.1918 188.889C82.0309 187.085 80.3076 185.715 78.2888 184.99C78.2888 184.99 80.8769 174.043 80.9327 173.54C81.1431 173.427 81.3502 173.308 81.5517 173.177L89.2344 168.171L86.7848 178.578C86.3567 180.08 86.3394 181.668 86.7349 183.178C87.1304 184.689 87.9241 186.065 89.0331 187.163C89.1013 187.524 89.2396 187.867 89.4401 188.174L101.416 206.554C104.693 211.584 110.755 213.148 116.86 210.539C117.62 210.162 118.352 209.732 119.051 209.252C120.108 208.564 121.27 207.757 122.088 207.181C122.473 206.91 122.783 206.546 122.991 206.124C123.199 205.702 123.297 205.234 123.278 204.764C123.258 204.293 123.12 203.836 122.878 203.432C122.635 203.029 122.295 202.693 121.889 202.455L117.035 199.614L108.185 186.031C107.024 184.227 105.3 182.857 103.282 182.132L105.628 172.169C105.771 171.683 105.87 171.185 105.925 170.681C106.135 170.568 113.008 166.106 113.008 166.106C113.562 166.311 114.129 166.481 114.704 166.615C112.816 169.37 111.786 172.622 111.745 175.962C111.704 179.302 112.654 182.579 114.474 185.38L119.848 193.627C122.499 197.685 126.651 200.526 131.393 201.526C136.135 202.527 141.081 201.605 145.145 198.964L148.679 196.661C151.179 195.032 152.93 192.476 153.546 189.557C154.161 186.638 153.592 183.593 151.963 181.093C150.335 178.593 147.779 176.843 144.86 176.227C141.941 175.611 138.896 176.18 136.396 177.809L134.04 179.345L130.969 174.632L133.325 173.096C135.255 171.84 136.846 170.129 137.959 168.114C139.073 166.099 139.674 163.841 139.71 161.538L134.086 161.445C134.064 162.827 133.704 164.182 133.036 165.392C132.368 166.602 131.413 167.629 130.255 168.384L127.898 169.919L124.811 165.181C125.073 165.033 143.916 152.768 143.916 152.768C146.195 155.072 149.199 156.518 152.421 156.865C155.642 157.212 158.885 156.437 161.602 154.672L163.959 153.136L167.029 157.849L164.673 159.384C162.173 161.013 160.423 163.568 159.807 166.488C159.191 169.407 159.76 172.452 161.389 174.952C163.018 177.451 165.573 179.202 168.493 179.818C171.412 180.434 174.457 179.864 176.956 178.236L180.491 175.932C184.549 173.282 187.39 169.13 188.39 164.388C189.39 159.645 188.469 154.699 185.827 150.636L180.454 142.388C178.627 139.592 176.013 137.4 172.941 136.088C169.869 134.776 166.478 134.405 163.195 135.019C163.305 134.439 163.378 133.851 163.414 133.261L169.878 129.05C170.08 128.918 170.273 128.777 170.461 128.63C170.944 128.784 171.44 128.895 171.942 128.96L182.004 130.838C181.851 132.977 182.409 135.107 183.59 136.898L192.44 150.481L193.08 156.069C193.133 156.537 193.303 156.984 193.574 157.369C193.845 157.754 194.208 158.064 194.63 158.272C195.053 158.481 195.52 158.579 195.991 158.56C196.461 158.54 196.919 158.403 197.322 158.161C201.081 155.903 204.621 153.603 206.237 149.325C206.876 147.636 207.107 145.82 206.909 144.024C206.711 142.229 206.091 140.506 205.098 138.997L193.122 120.617C192.922 120.309 192.664 120.044 192.362 119.836C191.805 118.377 190.867 117.095 189.646 116.123C188.424 115.15 186.964 114.524 185.417 114.309L174.907 112.346L182.588 107.341C182.789 107.209 182.982 107.068 183.171 106.921C183.654 107.075 184.149 107.186 184.652 107.251L194.713 109.129C194.561 111.269 195.119 113.398 196.299 115.189L205.15 128.772L205.789 134.36C205.843 134.828 206.013 135.275 206.284 135.66C206.555 136.045 206.918 136.355 207.34 136.564C207.762 136.772 208.23 136.87 208.7 136.851C209.171 136.831 209.628 136.694 210.032 136.452C210.889 135.935 212.097 135.199 213.154 134.51C213.874 134.064 214.564 133.568 215.216 133.026C220.068 128.495 221.087 122.319 217.809 117.288L205.832 98.9085C205.633 98.601 205.374 98.3358 205.072 98.1279C204.515 96.6692 203.577 95.3868 202.356 94.4145C201.134 93.4422 199.674 92.8158 198.128 92.6007L186.504 90.4311C186.439 90.419 186.374 90.4091 186.308 90.4018C185.232 90.2768 184.141 90.3661 183.099 90.6645C182.057 90.9629 181.085 91.4645 180.238 92.1405C179.021 91.7989 177.742 91.7383 176.498 91.9631C176.265 91.9444 168.188 93.3133 168.188 93.3133L171.88 90.9077C172.887 90.2586 173.743 89.4006 174.389 88.3919C175.036 87.3833 175.458 86.2474 175.627 85.0614C175.859 84.9401 176.085 84.8079 176.305 84.665C177.911 83.6167 179.1 82.0403 179.667 80.2082C179.687 80.1451 179.704 80.0812 179.719 80.0165L182.427 68.5075C182.856 67.0063 182.874 65.4174 182.478 63.9071C182.082 62.3968 181.287 61.0207 180.177 59.9229C180.109 59.5624 179.971 59.2187 179.771 58.9114L167.795 40.5314ZM33.5553 122.471C33.6048 122.905 33.7547 123.321 33.9931 123.687L43.2056 137.825C44.7913 140.259 43.407 143.199 41.3796 145.326L31.1228 129.585C30.4632 128.573 28.6396 124.969 32.8245 121.046C32.9236 120.963 33.1051 120.833 33.3491 120.667L33.5553 122.471ZM89.635 208.234C84.3565 210.478 81.796 207.354 81.1364 206.342L70.8794 190.6C73.6443 189.605 76.8933 189.526 78.479 191.96L87.6915 206.098C87.9298 206.464 88.2501 206.769 88.6269 206.99L90.1937 207.907C89.9442 208.063 89.7509 208.177 89.635 208.234ZM72.6446 184.422C70.9601 184.633 69.3164 185.093 67.7671 185.788C67.4494 185.406 67.2307 184.952 67.1308 184.466C67.0308 183.98 67.0525 183.476 67.194 183.001C67.2134 182.938 67.2307 182.874 67.2458 182.81L69.9496 171.329C69.9873 171.219 70.032 171.112 70.0833 171.007C71.27 172.678 73.028 173.855 75.0245 174.316L72.6446 184.422ZM213.095 120.358C213.755 121.371 215.578 124.975 211.394 128.897C211.295 128.98 211.113 129.11 210.869 129.276L210.662 127.472C210.613 127.039 210.463 126.622 210.225 126.257L201.012 112.118C199.427 109.685 200.811 106.744 202.838 104.617L213.095 120.358ZM185.956 97.5178C185.769 96.9797 185.528 96.4619 185.237 95.9721C185.353 95.9675 185.47 95.9701 185.585 95.98L197.18 98.1442C197.244 98.1565 197.309 98.1663 197.375 98.1737C197.868 98.2364 198.337 98.4199 198.741 98.7077C199.146 98.9956 199.473 99.379 199.693 99.8237C198.432 100.961 197.348 102.278 196.474 103.734L186.269 101.829C186.541 100.389 186.434 98.9032 185.956 97.5178ZM138.498 44.5695C139.129 44.5608 139.832 44.5761 140.574 44.6356C142.842 44.8176 145.97 45.4611 147.988 47.4924C149.717 49.2334 150.484 51.8704 150.28 55.353L140.1 53.678L138.498 44.5695ZM84.6759 43.7892C85.0934 43.4601 85.5533 43.1201 86.0608 42.7668C87.67 41.6515 89.6503 41.5609 93.0882 42.4787L106.386 46.6289L104.648 50.6804L84.6759 43.7892ZM88.4648 64.9892C87.8293 65.1262 87.1728 65.1336 86.5344 65.0109C85.8961 64.8882 85.289 64.6379 84.7496 64.2751C84.3896 64.0353 84.0629 63.7491 83.7778 63.4238L106.864 56.9317C107.325 56.8019 107.752 56.5698 108.111 56.2525C108.47 55.9352 108.753 55.541 108.938 55.0992L112.14 47.4822L132.882 45.111L134.447 54.0079L88.4648 64.9892ZM139.832 59.3325L149.359 60.9016L144.217 85.2669C143.729 87.5981 142.61 89.7502 140.981 91.4876C138.152 91.2424 135.305 91.2838 132.484 91.6113L139.832 59.3325ZM53.3876 71.984C54.3005 68.8653 55.7572 65.9324 57.6905 63.3204L53.584 77.3529L51.3999 78.776L53.3876 71.984ZM49.0769 87.0034L57.5273 81.4972C58.0899 81.1307 58.5028 80.575 58.6913 79.9306L65.0404 58.2343C65.3378 58.5177 65.5985 58.8375 65.8162 59.186C66.1659 59.739 66.3997 60.3573 66.5033 61.0034C66.6069 61.6495 66.5782 62.3099 66.4189 62.9445L55.13 108.605L44.9719 106.463L49.0769 87.0034ZM44.1089 112.029L53.8744 114.089L51.8139 123.855C49.5375 122.821 47.6034 121.159 46.2385 119.065C44.8736 116.97 44.1345 114.529 44.108 112.029L44.1089 112.029ZM57.2561 125.313L59.3788 115.25L87.3135 121.143C85.5633 124.148 84.1922 127.358 83.2315 130.7C82.7325 130.655 82.2364 130.582 81.7456 130.48L57.2561 125.313ZM67.7725 152.03C66.6762 152.744 64.8753 152.729 63.7237 150.961C63.2288 150.202 63.4198 148.778 63.9439 148.043C64.149 147.755 64.406 147.509 64.7017 147.317L75.1612 140.501C76.0883 139.894 77.1268 139.476 78.2165 139.272C79.3062 139.068 80.4256 139.082 81.5097 139.314C81.5749 139.327 81.6392 139.346 81.7043 139.361C81.6205 140.57 81.5906 141.786 81.6146 143.01L67.7725 152.03ZM78.4801 168.463C78.1866 168.654 77.86 168.789 77.517 168.861C76.1327 169.149 74.3434 167.833 74.1609 166.484C74.0766 165.878 74.193 165.261 74.4925 164.727L90.2363 160.611C89.8433 160.993 78.4801 168.463 78.4801 168.463ZM114.627 205.375C109.349 207.62 106.789 204.496 106.129 203.484L95.8724 187.742C98.6372 186.747 101.886 186.668 103.472 189.102L112.684 203.24C112.923 203.606 113.243 203.911 113.62 204.132L115.187 205.05C114.937 205.205 114.744 205.319 114.628 205.376L114.627 205.375ZM97.6375 181.565C95.953 181.776 94.3093 182.236 92.7601 182.93C92.4423 182.549 92.2237 182.095 92.1237 181.608C92.0237 181.122 92.0454 180.619 92.1869 180.143C92.2063 180.08 92.2236 180.016 92.2388 179.953L94.9425 168.471C94.9802 168.362 95.0249 168.254 95.0762 168.15C96.2629 169.82 98.0209 170.997 100.017 171.458L97.6375 181.565ZM103.473 165.605C103.171 165.78 102.847 165.915 102.51 166.004C100.618 166.609 99.3589 164.597 99.163 163.701C99.1604 163.676 99.1574 163.652 99.1539 163.627C99.0798 163.1 99.158 162.562 99.3792 162.077C99.6003 161.593 99.9554 161.181 100.402 160.892L101.38 160.255L107.144 163.213L103.473 165.605ZM119.187 182.309C117.828 180.218 117.201 177.736 117.404 175.251C117.607 172.765 118.629 170.418 120.309 168.575L129.327 182.416L122.258 187.022L119.187 182.309ZM139.467 182.522C140.717 181.708 142.239 181.423 143.699 181.731C145.159 182.039 146.436 182.914 147.251 184.164C148.065 185.414 148.35 186.936 148.042 188.396C147.734 189.856 146.859 191.133 145.609 191.948L142.074 194.251C139.464 195.947 136.322 196.623 133.246 196.151C130.17 195.679 127.375 194.092 125.394 191.692L139.467 182.522ZM158.531 149.959C157.069 150.909 155.348 151.384 153.605 151.318C151.862 151.252 150.182 150.648 148.795 149.589L157.817 143.71L160.888 148.423L158.531 149.959ZM177.42 171.22L173.886 173.523C172.636 174.337 171.113 174.622 169.654 174.314C168.194 174.006 166.916 173.131 166.102 171.881C165.287 170.631 165.003 169.109 165.311 167.649C165.619 166.189 166.494 164.912 167.744 164.097L181.817 154.927C183.212 157.709 183.535 160.907 182.724 163.912C181.914 166.916 180.026 169.517 177.42 171.22ZM175.741 145.459L178.812 150.172L171.742 154.778L162.724 140.938C165.088 140.145 167.648 140.159 170.004 140.977C172.359 141.796 174.377 143.372 175.741 145.459ZM157.806 131.93C157.891 133.414 157.583 134.895 156.913 136.223C156.242 137.55 155.234 138.677 153.989 139.491L122.513 160C121.266 160.81 119.828 161.277 118.343 161.354C116.858 161.431 115.379 161.115 114.055 160.438L99.6897 153.065C99.0741 152.749 98.3636 152.671 97.6942 152.847L79.037 157.724L86.8196 146.061C87.1592 145.552 87.3236 144.946 87.2879 144.336C86.9234 137.955 88.2479 131.591 91.128 125.886C94.008 120.181 98.3417 115.336 103.692 111.84L117.536 102.82C122.895 99.3378 129.077 97.3305 135.459 97.0004C141.842 96.6703 148.198 98.0292 153.888 100.94C154.432 101.219 155.054 101.313 155.656 101.207L169.47 98.7993L157.47 113.897C157.04 114.439 156.824 115.12 156.864 115.811L157.806 131.93ZM167.89 121.081C168.057 121.496 168.115 121.946 168.058 122.388C168.001 122.831 167.832 123.252 167.566 123.611C167.361 123.898 167.104 124.144 166.808 124.336L163.137 126.729L162.759 120.261L163.737 119.624C165.394 118.544 167.294 119.561 167.89 121.081ZM200.386 142.067C201.045 143.08 202.869 146.684 198.684 150.606C198.585 150.689 198.403 150.819 198.159 150.985L197.953 149.181C197.903 148.748 197.754 148.331 197.515 147.966L188.303 133.827C186.717 131.394 188.101 128.453 190.129 126.326L200.386 142.067ZM184.472 119.855C184.536 119.867 184.601 119.877 184.667 119.884C185.159 119.947 185.628 120.13 186.033 120.418C186.437 120.706 186.764 121.089 186.985 121.534C185.724 122.671 184.639 123.989 183.765 125.444L173.56 123.539C173.944 121.527 173.577 119.443 172.529 117.683C172.645 117.678 172.761 117.681 172.877 117.69L184.472 119.855ZM177.711 97.4728C178.338 97.4118 178.967 97.5629 179.497 97.9018C180.028 98.2406 180.429 98.7477 180.637 99.3418C180.846 99.936 180.849 100.583 180.646 101.179C180.443 101.775 180.046 102.285 179.518 102.629L169.058 109.444C168.594 109.747 168.101 110.004 167.586 110.212L177.711 97.4728ZM167.744 86.9071C163.493 89.6767 159.241 92.4437 154.987 95.208C153.691 94.679 151.862 94.4681 151.753 93.0522C151.682 92.1374 152.925 90.1977 153.665 89.716C154.745 88.5923 162.396 83.6522 164.906 82.0322C165.512 81.579 166.206 81.2569 166.944 81.0864C167.614 80.9912 168.294 81.1505 168.852 81.533C169.41 81.9155 169.804 82.4933 169.956 83.1522C169.982 83.2585 170.765 84.9368 167.743 86.9059L167.744 86.9071ZM177.026 66.9389C177.005 67.0026 176.988 67.0672 176.973 67.1328L174.272 78.6137C174.234 78.7235 174.189 78.8308 174.138 78.9349C172.951 77.2652 171.193 76.0883 169.197 75.6268L171.573 65.5182C173.258 65.3073 174.903 64.847 176.452 64.1526C176.77 64.5335 176.989 64.9871 177.089 65.4732C177.189 65.9592 177.167 66.4623 177.025 66.9377L177.026 66.9389Z" fill="white"/>
<path id="Vector_2" d="M145.813 134.561L150.444 136.815L152.905 131.757L148.275 129.503C145.179 128.009 141.785 127.233 138.348 127.234C134.91 127.235 131.517 128.013 128.422 129.509L116.041 110.508L111.328 113.578L123.71 132.58C121.09 134.806 119.008 137.596 117.618 140.741C116.229 143.885 115.567 147.303 115.684 150.739L115.875 155.885L121.496 155.676L121.305 150.53C121.223 148.066 121.672 145.613 122.623 143.338C123.574 141.063 125.005 139.021 126.817 137.349L132.824 146.568L137.537 143.497L131.53 134.278C133.791 133.296 136.237 132.813 138.702 132.862C141.167 132.91 143.593 133.49 145.813 134.561Z" fill="white"/>
<path id="Vector_3" d="M97.9043 129.039L93.1915 132.11L96.2623 136.823L100.975 133.752L97.9043 129.039Z" fill="white"/>
<path id="Vector_4" d="M109.686 121.362L104.974 124.433L108.044 129.146L112.757 126.075L109.686 121.362Z" fill="white"/>
<path id="Vector_5" d="M108.759 135.394L104.046 138.465L107.117 143.178L111.83 140.107L108.759 135.394Z" fill="white"/>
<path id="Vector_6" d="M140.32 101.402L135.607 104.472L138.678 109.185L143.39 106.114L140.32 101.402Z" fill="white"/>
<path id="Vector_7" d="M128.538 109.079L123.825 112.15L126.896 116.862L131.608 113.792L128.538 109.079Z" fill="white"/>
<path id="Vector_8" d="M141.748 113.898L137.036 116.969L140.106 121.682L144.819 118.611L141.748 113.898Z" fill="white"/>
</g>
</svg>
