<svg width="285" height="312" viewBox="0 0 285 312" fill="none" xmlns="http://www.w3.org/2000/svg">
<g id="Outline">
<path id="Vector" d="M190.937 20.5479C185.753 15.9714 179.435 12.9411 172.698 11.8005C165.961 10.6599 159.076 11.4545 152.821 14.0942L152.702 14.144C147.254 16.4237 142.453 20.0204 138.709 24.626C134.965 29.2316 132.39 34.7091 131.205 40.5893L129.577 48.6652L137.691 50.4818L139.317 42.4062C140.235 37.8542 142.229 33.6139 145.127 30.0485C148.025 26.4831 151.742 23.6986 155.96 21.9335L156.079 21.8838C160.92 19.8404 166.251 19.2253 171.466 20.1082C176.68 20.9911 181.572 23.3368 185.585 26.8794C188.942 29.8333 191.593 33.5256 193.331 37.6673L243.982 158.789C241.294 159.613 238.527 160.161 235.722 160.425L225.046 134.895L217.433 138.079L226.722 160.293C223.313 159.87 219.959 159.033 216.734 157.797L206.562 133.473L198.949 136.657L205.964 153.434L197.873 145.069L196.037 141.965C196.006 141.913 195.974 141.861 195.94 141.81L183.021 119.997L167.318 87.1542C167.248 87.0088 167.17 86.8674 167.085 86.7306C164.45 82.4854 160.429 79.3072 155.742 77.7648C151.056 76.2225 146.009 76.4168 141.505 78.3129L139.179 79.2859L127.629 51.6671C125.071 45.5686 120.253 40.7109 114.232 38.1599C108.211 35.6089 101.479 35.5728 95.5131 38.0596C89.0462 40.764 82.3191 43.7018 79.4874 50.7946C78.0762 54.3331 77.7712 58.2434 78.6133 62.0004C73.634 58.8627 68.0109 56.9616 62.2083 56.4542C56.4057 55.9469 50.59 56.8477 45.2416 59.0824L45.1226 59.1321L48.3801 66.9217L48.499 66.8719C52.7172 65.1093 57.3097 64.4188 61.8831 64.8596C66.4566 65.3003 70.875 66.8591 74.7599 69.4026L79.7137 72.6476L79.5931 74.7C79.5417 75.5806 79.7645 76.4599 80.23 77.2133C80.6956 77.9666 81.3803 78.5559 82.1871 78.8975L86.03 80.5273L88.6129 86.704C89.0449 87.7369 89.8602 88.5599 90.8796 88.9917C91.8989 89.4236 93.0387 89.4291 94.0483 89.0069L101.662 85.8231L104.919 93.6127L88.7314 100.382C85.7954 101.624 83.1911 103.541 81.1203 105.984C79.0495 108.427 77.5676 111.331 76.7896 114.471L73.6155 110.169C72.9822 109.309 72.0538 108.721 71.0195 108.525C71.8639 104.806 71.7 100.908 70.5452 97.2428C69.3903 93.5776 67.2874 90.2815 64.4587 87.7029C63.8697 87.165 63.1442 86.8072 62.368 86.6718C61.5917 86.5363 60.7972 86.6289 60.0782 86.9385C59.024 83.018 56.8874 79.4699 53.9232 76.7171C53.5153 76.3382 53.0389 76.0442 52.5213 75.852C52.0038 75.6599 51.4556 75.5735 50.9084 75.5978C50.3613 75.6222 49.8261 75.7567 49.3339 75.9938C48.8417 76.2308 48.4024 76.5656 48.0413 76.9787L47.0812 78.0769C45.3523 73.4823 42.1147 69.6157 37.9231 67.1391C37.4447 66.8568 36.9173 66.6732 36.3718 66.5989C35.8262 66.5246 35.2733 66.5611 34.7452 66.7064C34.2172 66.8517 33.7246 67.1027 33.2962 67.445C32.8678 67.7873 32.512 68.2139 32.2497 68.7L30.6877 71.5954C29.4979 73.8012 28.7187 76.2162 28.3886 78.7211C25.7974 76.4832 22.7112 74.9237 19.4061 74.1821C16.1009 73.4406 12.6797 73.54 9.4484 74.4715L6.34746 75.3753C5.30302 75.6848 4.42712 76.4017 3.90912 77.3708C3.39112 78.34 3.27263 79.4837 3.57927 80.5545L3.59826 80.6187C4.52474 83.7077 6.13057 86.5521 8.29301 88.9344C10.4554 91.3168 13.1173 93.174 16.075 94.3641C15.0865 95.2424 14.1857 96.2173 13.3852 97.2752L11.412 99.8839C10.7542 100.753 10.4639 101.857 10.6038 102.955C10.7437 104.054 11.3026 105.059 12.1597 105.754C15.4127 108.413 19.3704 110.012 23.5041 110.339L22.3993 112.236C21.8497 113.18 21.6908 114.311 21.957 115.386C22.2231 116.461 22.893 117.394 23.8219 117.983C27.1367 120.098 30.9642 121.211 34.8492 121.19L37.4814 123.271L34.7819 127.347C37.2659 129.069 40.0835 130.22 43.0348 130.719C45.986 131.217 48.9986 131.051 51.8585 130.232L77.4763 167.142C78.8308 169.097 80.6199 170.703 82.6948 171.826C84.7698 172.949 87.0706 173.557 89.4058 173.598C91.7411 173.64 94.0433 173.115 96.121 172.066C98.1986 171.017 99.9917 169.475 101.351 167.568C102.656 169.266 103.96 170.99 105.259 172.728L106.088 185.188C106.251 187.597 106.215 190.011 105.983 192.407L99.9766 178.045L92.3634 181.229L102.535 205.553C101.15 208.717 99.3908 211.692 97.2971 214.416L88.0077 192.202L80.3944 195.386L91.0706 220.916C88.913 222.727 86.5795 224.312 84.1046 225.647L46.7215 136.253L39.1082 139.437L78.1978 232.912C78.6298 233.945 79.4451 234.768 80.4645 235.2C81.4838 235.631 82.6236 235.637 83.6332 235.215C93.2276 231.204 101.326 224.267 106.827 215.348C112.328 206.429 114.966 195.961 114.381 185.364C116.261 188.058 118.12 190.763 119.933 193.476L126.76 188.827C122.463 182.396 117.954 175.994 113.352 169.767L111.803 146.467C111.78 146.112 111.908 138.441 112.651 135.055C112.832 135.099 115.391 135.762 115.391 135.762C118.601 146.506 122.418 157.063 126.822 167.379L164.706 257.97L156.435 267.753C155.087 269.347 154.316 271.366 154.247 273.483C154.177 275.6 154.814 277.69 156.053 279.415C157.292 281.14 159.06 282.398 161.073 282.987C163.085 283.576 165.223 283.46 167.141 282.659L234.762 254.381C235.469 254.085 236.078 253.594 236.52 252.962C236.962 252.331 237.221 251.583 237.266 250.804C237.312 250.025 237.143 249.245 236.778 248.551C236.414 247.857 235.867 247.277 235.201 246.876C224.352 240.311 215.817 230.401 210.861 218.617L197.832 187.459L190.218 190.642L203.248 221.801C207.844 232.728 215.152 242.292 224.446 249.543L178.212 268.877L134.436 164.196C129.836 153.432 125.897 142.398 122.641 131.158C121.415 126.933 114.972 127.626 111.828 125.842C109.816 124.698 108.229 122.906 107.324 120.754C107.271 120.625 107.218 120.492 107.158 120.326C106.437 118.37 106.311 116.247 106.797 114.237L109.642 102.422L123.182 105.201L127.74 116.1C128.172 117.133 128.987 117.956 130.007 118.388C131.026 118.82 132.166 118.826 133.175 118.403C137.444 116.622 140.972 113.417 143.186 109.309L146.519 109.994L146.971 129.239C146.992 130.141 147.298 131.018 147.844 131.739C148.39 132.46 149.147 132.987 150.004 133.242C162.64 137.014 172.005 147.087 179.474 164.946L186.962 182.852L194.575 179.669L192.946 175.774L211.979 167.815C212.924 167.419 213.684 166.679 214.112 165.738C226.151 170.324 239.38 170.122 251.124 165.173C252.134 164.75 252.93 163.935 253.339 162.906C253.747 161.877 253.734 160.719 253.302 159.686L200.944 34.4836C198.699 29.1333 195.274 24.3637 190.937 20.5479ZM102.211 76.4417L94.5974 79.6255L92.9687 75.7307C92.7548 75.2192 92.4446 74.7539 92.0557 74.3613C91.6668 73.9688 91.2068 73.6567 90.7021 73.4428L88.0368 72.3135L88.4089 65.9564C88.4878 64.6079 87.7757 63.3127 87.2681 62.099C86.7307 60.8222 86.4456 59.4541 86.4293 58.0735C86.4129 56.6929 86.6657 55.3271 87.1729 54.0549C87.3721 53.5667 87.6067 53.0946 87.8748 52.6426L103.992 59.3118L116.339 88.8371L112.532 90.429L107.646 78.7446C107.214 77.7117 106.399 76.8887 105.379 76.4569C104.36 76.025 103.22 76.0195 102.211 76.4417ZM103.759 130.007C104.164 130.418 104.588 130.81 105.029 131.182C104.554 132.979 104.182 134.804 103.914 136.647L103.759 130.007ZM61.3769 110.325C60.3048 108.324 59.7734 106.077 59.8375 103.816C59.9017 101.555 60.559 99.363 61.7416 97.4653C62.8135 99.4661 63.345 101.713 63.2812 103.973C63.2174 106.234 62.5607 108.426 61.3788 110.324L61.3769 110.325ZM20.9831 101.308C22.8409 99.4109 25.2853 98.2174 27.9199 97.9214C29.7096 97.7129 31.5292 97.9185 33.2429 98.5227C31.3848 100.42 28.9404 101.614 26.3057 101.91C24.5161 102.118 22.6967 101.913 20.9831 101.308ZM38.5548 108.26C40.2898 107.841 42.1016 107.826 43.8559 108.217C42.2336 110.345 39.9391 111.84 37.3479 112.455C35.613 112.874 33.8011 112.889 32.0468 112.498C33.6698 110.369 35.9648 108.874 38.5565 108.259L38.5548 108.26ZM50.5918 99.2972C49.5409 97.2847 49.0337 95.0321 49.1226 92.7725C49.2115 90.5129 49.8934 88.3283 51.0976 86.4448C52.1482 88.457 52.6555 90.7092 52.5668 92.9685C52.4782 95.2278 51.7969 97.4122 50.5935 99.2959L50.5918 99.2972ZM37.2521 77.3134C38.691 79.0647 39.6533 81.165 40.041 83.4C40.4288 85.635 40.228 87.9249 39.4593 90.0362C38.0205 88.2845 37.0584 86.184 36.671 83.9487C36.2835 81.7135 36.4846 79.4235 37.2538 77.3121L37.2521 77.3134ZM25.1489 87.3167C22.9447 87.6156 20.6923 87.2987 18.6326 86.3997C16.5728 85.5008 14.7832 84.0536 13.4551 82.2131C15.6594 81.9129 17.9123 82.2291 19.9725 83.1279C22.0328 84.0267 23.8227 85.4742 25.1506 87.3154L25.1489 87.3167ZM49.2388 118.545C50.7264 118.372 52.2372 118.486 53.6928 118.879L50.5699 121.006C50.1286 121.307 49.7505 121.694 49.4566 122.144C47.1204 122.803 44.6313 122.726 42.3156 121.923C44.1708 120.03 46.6109 118.839 49.2405 118.543L49.2388 118.545ZM92.8769 164.209C91.4944 165.086 89.8246 165.383 88.2129 165.04C86.6011 164.697 85.1706 163.74 84.2174 162.366L59.1929 126.312C60.1899 125.465 61.1013 124.518 61.9138 123.487L69.409 118.382L75.3358 126.413L71.4977 130.952C71.1334 131.383 70.8608 131.887 70.6965 132.432C70.5322 132.977 70.4798 133.552 70.5424 134.123C70.605 134.693 70.7813 135.246 71.0606 135.748C71.3398 136.25 71.7161 136.691 72.1664 137.043L93.2767 153.546C94.1015 154.19 94.7638 155.026 95.207 155.981C95.6502 156.936 95.8611 157.982 95.8219 159.029C95.7826 160.077 95.4942 161.095 94.9814 161.997C94.4686 162.899 93.7466 163.658 92.8769 164.209ZM162.601 274.325C162.529 274.155 162.505 273.968 162.532 273.786C162.559 273.604 162.636 273.434 162.753 273.295L168.348 266.679L170.599 272.061L163.884 274.869C163.646 274.968 163.377 274.967 163.136 274.865C162.896 274.763 162.703 274.569 162.601 274.325ZM98.751 112.113C98.2799 114.059 98.1234 116.076 98.2878 118.083C98.3183 118.461 98.3648 118.837 98.4176 119.212L97.8366 119.455C97.0758 119.773 96.43 120.317 95.9825 121.017C95.535 121.717 95.3063 122.54 95.326 123.381L95.8329 145.01L89.5199 140.073C88.019 138.356 86.5103 136.657 85.0076 134.986L84.4615 120.114C84.3792 117.566 85.0532 115.064 86.3957 112.934C87.7382 110.804 89.6871 109.145 91.9888 108.172L100.563 104.586L98.751 112.113ZM133.445 108.355L110.922 54.4952C110.706 53.9786 110.391 53.5094 109.997 53.1146C109.602 52.7199 109.136 52.4076 108.624 52.1959L96.0436 46.9895L98.7692 45.8497C102.716 44.2035 107.17 44.2267 111.153 45.9143C115.136 47.6018 118.324 50.8158 120.016 54.8508L136.451 94.1539C137.459 96.5708 137.711 99.233 137.173 101.775C136.634 104.318 135.332 106.616 133.445 108.355ZM155.178 126.164L155.07 121.554L158.948 127.772C157.722 127.18 156.465 126.644 155.178 126.164ZM192.809 166.68L182.845 151.77C174.173 137.131 165.574 122.443 156.643 107.962C155.401 105.953 153.885 102.99 151.386 102.439C151.37 102.434 151.354 102.43 151.338 102.426L145.638 101.255C145.971 97.7608 145.43 94.2235 144.065 90.9702L142.436 87.0754L144.763 86.1024C147.431 84.9783 150.418 84.8495 153.203 85.7386C155.987 86.6276 158.392 88.4779 159.996 90.9661C159.996 90.9661 175.784 123.974 175.849 124.084C175.849 124.084 191.432 150.313 191.666 150.554L203.099 162.377L192.809 166.68Z" fill="white"/>
<path id="Vector_2" d="M144.633 49.55L146.261 53.4448C147.274 55.8589 148.993 57.9074 151.18 59.3094C153.368 60.7114 155.918 61.3981 158.481 61.2755L158.761 61.9454C160.057 65.0443 162.503 67.5131 165.561 68.8087C168.619 70.1044 172.038 70.1207 175.067 68.8541C178.096 67.5876 180.485 65.1418 181.711 62.055C182.936 58.9682 182.896 55.4931 181.6 52.3942L181.32 51.7243C183.207 49.9862 184.509 47.6886 185.048 45.1466C185.586 42.6046 185.335 39.9427 184.328 37.5262L182.699 33.6314L175.086 36.8151L176.714 40.7099C177.146 41.7428 177.159 42.9012 176.751 43.9302C176.343 44.9591 175.546 45.7743 174.536 46.1965C173.527 46.6187 172.387 46.6133 171.368 46.1814C170.348 45.7495 169.533 44.9266 169.101 43.8936L167.472 39.9989L159.859 43.1826L161.488 47.0774C161.92 48.1103 161.933 49.2687 161.525 50.2976C161.116 51.3266 160.32 52.1418 159.31 52.564C158.3 52.9862 157.161 52.9807 156.141 52.5489C155.122 52.117 154.307 51.294 153.875 50.2611L152.246 46.3663L144.633 49.55ZM168.932 54.185C170.467 54.7393 172.089 54.985 173.707 54.908L173.987 55.5779C174.419 56.6109 174.432 57.7693 174.024 58.7982C173.616 59.8271 172.819 60.6424 171.809 61.0646C170.8 61.4868 169.66 61.4813 168.641 61.0494C167.621 60.6176 166.806 59.7946 166.374 58.7617L166.094 58.0918C167.285 56.9942 168.249 55.667 168.932 54.185Z" fill="white"/>
<path id="Vector_3" d="M211.467 113.118C213.469 112.277 215.21 110.913 216.516 109.162C217.823 107.412 218.65 105.337 218.914 103.143L210.694 101.998C210.587 102.917 210.183 103.769 209.546 104.423C208.91 105.076 208.075 105.493 207.172 105.611C206.269 105.728 205.348 105.538 204.553 105.07C203.758 104.603 203.132 103.884 202.774 103.026L202.494 102.356C204.381 100.618 205.683 98.3202 206.221 95.7782C206.76 93.2362 206.508 90.5744 205.501 88.1578L197.888 91.3415C198.32 92.3745 198.333 93.5328 197.925 94.5618C197.516 95.5907 196.719 96.406 195.71 96.8282C194.7 97.2503 193.56 97.2449 192.541 96.813C191.522 96.3812 190.707 95.5582 190.275 94.5253L182.661 97.709C183.674 100.123 185.393 102.172 187.58 103.574C189.768 104.976 192.318 105.662 194.881 105.54L195.161 106.21C196.46 109.306 198.906 111.772 201.963 113.067C205.02 114.362 208.438 114.381 211.467 113.118Z" fill="white"/>
<path id="Vector_4" d="M152.088 154.232L146.696 160.529C155.287 168.179 164.349 175.261 173.826 181.73L178.353 174.76C169.178 168.496 160.405 161.639 152.088 154.232Z" fill="white"/>
<path id="Vector_5" d="M145.063 147.76C140.282 143.186 137.567 140.21 137.54 140.18L131.499 145.836C131.617 145.964 134.42 149.041 139.439 153.841L145.063 147.76Z" fill="white"/>
<path id="Vector_6" d="M169.941 197.23L164.356 203.349C172.63 211.213 181.777 218.067 191.605 223.768L195.597 216.462C186.343 211.093 177.731 204.637 169.941 197.23Z" fill="white"/>
<path id="Vector_7" d="M157.735 196.71L163.682 190.953C155.879 182.642 151.721 176.254 151.678 176.191L148.227 178.459L144.775 180.724C144.957 181.008 149.354 187.783 157.735 196.71Z" fill="white"/>
<path id="Vector_8" d="M203.141 246.065C185.362 238.533 173.297 224.028 173.175 223.883L166.849 229.208C167.388 229.868 180.305 245.455 200.06 253.825L203.141 246.065Z" fill="white"/>
</g>
</svg>
